<?xml version="1.0" encoding="UTF-8"?>
<svg id="logosandtypes_com" data-name="logosandtypes com" xmlns="http://www.w3.org/2000/svg" viewBox="0 0 150 150">
  <defs>
    <style>
      .cls-1 {
        fill: none;
      }
    </style>
  </defs>
  <path class="cls-1" d="M0,0H150V150H0V0Z"/>
  <path d="M83.66,65.26L123.95,25.19l-15.29-15.2-32.65,32.46L43.37,10l-15.29,15.2,40.29,40.06c2.11,2.1,4.88,3.15,7.64,3.15s5.53-1.05,7.64-3.15Z"/>
  <path d="M141.99,108.05l-32.65-32.46,32.65-32.46-15.29-15.2-40.29,40.06c-4.22,4.2-4.22,11,0,15.2l40.29,40.06,15.29-15.2h0Z"/>
  <path d="M75.96,108.78l32.65,32.46,15.29-15.2-40.29-40.06c-4.22-4.2-11.06-4.2-15.29,0L28.02,126.04l15.29,15.2,32.65-32.46h0Z"/>
  <path d="M65.57,83.24c2.03-2.02,3.17-4.75,3.17-7.6s-1.14-5.58-3.17-7.6L25.27,27.99l-15.29,15.2,32.65,32.46L9.99,108.11l15.29,15.2,40.29-40.06h0Z"/>
</svg>