<?xml version="1.0" encoding="UTF-8"?>
<svg version="1.1" xmlns="http://www.w3.org/2000/svg" width="512" height="512">
<path d="M0 0 C3.77929793 0.00477161 7.55854692 -0.00781321 11.33782864 -0.01801741 C18.72364078 -0.03513409 26.10936759 -0.03606021 33.49519441 -0.03080451 C39.50488422 -0.02674769 45.514549 -0.02822423 51.52423763 -0.03355277 C52.81182957 -0.0346754 52.81182957 -0.0346754 54.12543346 -0.03582071 C55.86980556 -0.03735234 57.61417766 -0.03889069 59.35854974 -0.04043568 C75.68420943 -0.0541353 92.00982108 -0.04874126 108.33547965 -0.03725047 C123.23354812 -0.02732401 138.13149228 -0.04025313 153.02954158 -0.06418466 C168.36777941 -0.08863551 183.70595949 -0.09816867 199.04421639 -0.09153193 C207.63904927 -0.08805256 216.23378668 -0.09018635 224.8286047 -0.10778296 C232.14621549 -0.12258021 239.46366358 -0.12304316 246.78127143 -0.10571205 C250.50627148 -0.09726043 254.23098185 -0.09490703 257.955966 -0.1103636 C294.76582615 -0.25199178 325.23266559 8.41045224 352.34762478 34.15683305 C366.18072352 48.55779299 376.16717324 66.04205896 381.16012478 85.40683305 C381.53165141 86.70938035 381.53165141 86.70938035 381.91068363 88.03824174 C385.14463686 101.2647188 384.58854264 114.77786038 384.55229878 128.30534446 C384.54545077 132.09274029 384.55601772 135.88009608 384.56423855 139.66748369 C384.57751732 147.06800172 384.57472443 154.46842803 384.56600063 161.86894953 C384.55920129 167.88820729 384.55831704 173.90743949 384.56157207 179.9267 C384.56203177 180.78624951 384.56249147 181.64579903 384.5629651 182.53139549 C384.56392436 184.27803052 384.564897 186.02466554 384.56588288 187.77130055 C384.57441961 204.11591802 384.56462966 220.46048485 384.54848178 236.805094 C384.53508016 250.80289954 384.53740874 264.80063042 384.55123806 278.79843462 C384.56732429 295.08806177 384.5735958 311.37764465 384.56440127 327.66727865 C384.56344571 329.40717446 384.5625026 331.14707028 384.56157207 332.88696611 C384.56110925 333.74283302 384.56064642 334.59869992 384.56016957 335.48050219 C384.55758879 341.48642342 384.5619309 347.49231635 384.56901073 353.4982332 C384.57745984 360.82618627 384.57507438 368.15404305 384.5591685 375.48198521 C384.55133137 379.21454271 384.54811541 382.94694017 384.55811596 386.67949617 C384.62839396 415.24731535 384.62839396 415.24731535 381.16012478 427.40683305 C380.87220342 428.52351366 380.87220342 428.52351366 380.57846546 429.66275346 C372.76437702 458.41941383 352.86416958 482.43585019 327.48824978 497.5591768 C322.17975324 500.50626467 316.75443505 503.05244368 311.16012478 505.40683305 C310.25778103 505.78710649 309.35543728 506.16737993 308.42574978 506.5591768 C291.66295178 513.13039199 274.912338 512.84636838 257.17707038 512.79900706 C253.37740455 512.79215937 249.57777863 512.80272584 245.77812099 512.81094682 C238.35353959 512.82422593 230.92904961 512.82143255 223.50446475 512.8127089 C217.46566086 512.80590969 211.42688245 512.80502526 205.38807583 512.80828035 C204.09458851 512.8089699 204.09458851 512.8089699 202.77497014 512.80967338 C201.02269812 512.81063264 199.2704261 512.81160528 197.51815408 512.81259115 C181.12060156 512.82112799 164.72309951 512.81133777 148.32555526 512.79519005 C134.28226803 512.78178843 120.23905521 512.784117 106.19576931 512.79794633 C89.85340448 512.81403238 73.51108378 512.82030417 57.16871214 512.81110954 C55.42319934 512.81015398 53.67768654 512.80921087 51.93217373 512.80828035 C50.6442272 512.80758611 50.6442272 512.80758611 49.33026156 512.80687784 C43.3048037 512.80429702 37.27937404 512.80863929 31.25392056 512.81571901 C23.90217903 512.82416791 16.55053348 512.82178306 9.19880283 512.80587678 C5.4540939 512.79803939 1.70954451 512.79482414 -2.03516293 512.80482423 C-30.71882464 512.87514803 -30.71882464 512.87514803 -42.83987522 509.40683305 C-43.59477489 509.20960334 -44.34967457 509.01237363 -45.12744999 508.80916727 C-74.53979627 500.68759441 -99.21651414 480.15291594 -114.35867405 453.96225297 C-126.65966087 431.80280217 -128.45261729 409.05111781 -128.3627739 384.10269535 C-128.35360715 380.32618802 -128.36774982 376.54975039 -128.37869358 372.77325761 C-128.3963612 365.40133324 -128.39269179 358.02957294 -128.38104302 350.65764248 C-128.37196222 344.65948518 -128.37080463 338.66137345 -128.37513828 332.66321123 C-128.37575121 331.80535856 -128.37636415 330.9475059 -128.37699565 330.0636577 C-128.37827472 328.32025173 -128.37957158 326.57684577 -128.38088602 324.83343983 C-128.39225737 308.53444979 -128.37923245 292.23555014 -128.35768455 275.93657494 C-128.33981671 261.99009232 -128.3429218 248.04374295 -128.3613596 234.09726274 C-128.38282747 217.85150627 -128.39115905 201.60582877 -128.37891054 185.3600601 C-128.37763652 183.62352504 -128.37637903 181.88698996 -128.37513828 180.15045488 C-128.37421263 178.86926872 -128.37421263 178.86926872 -128.37326828 177.56220001 C-128.36983307 171.58014454 -128.37560395 165.59813971 -128.3850565 159.61609209 C-128.39634393 152.31320892 -128.39309621 145.01049743 -128.37193352 137.70763361 C-128.36151285 133.99071275 -128.35714489 130.27407676 -128.37053013 126.55715883 C-128.49178585 89.77221378 -119.81793432 59.31499662 -94.08987522 32.21933305 C-79.68941506 18.38671438 -62.20446939 8.39865742 -42.83987522 3.40683305 C-41.97077393 3.15933274 -41.10167263 2.91183242 -40.20623493 2.6568321 C-26.99831981 -0.56909471 -13.50840775 -0.02878543 0 0 Z M-57.83987522 73.40683305 C-58.48053928 74.01140337 -59.12120335 74.61597368 -59.78128147 75.2388643 C-73.12522729 88.94103686 -74.99991182 108.1705905 -74.97358799 126.29690874 C-74.97585355 127.45530393 -74.9781191 128.61369913 -74.98045331 129.80719721 C-74.98565854 132.99563302 -74.98644336 136.18403303 -74.98525894 139.37247169 C-74.98505372 142.82181607 -74.99058512 146.27115223 -74.99531651 149.72049272 C-75.00359747 156.4682767 -75.00637018 163.21605194 -75.00692888 169.96384057 C-75.00740524 175.45261368 -75.00946595 180.94138392 -75.01262951 186.43015611 C-75.02142896 202.01601487 -75.02604997 217.60186676 -75.02529904 233.18772802 C-75.02525908 234.0267026 -75.02521912 234.86567718 -75.02517796 235.73007524 C-75.02513707 236.57008247 -75.02509619 237.41008971 -75.02505407 238.27555171 C-75.02464776 251.88397466 -75.03421541 265.49236992 -75.04831632 279.10078487 C-75.06270435 293.09750462 -75.06958518 307.09421088 -75.06872255 321.09093821 C-75.06839142 328.93951164 -75.07110127 336.78805604 -75.0819006 344.63662279 C-75.09103757 351.31948355 -75.09315471 358.00230212 -75.08639117 364.68516645 C-75.08314207 368.08946615 -75.08411277 371.49361948 -75.09174442 374.89792192 C-75.14667829 401.10931321 -74.05993819 422.79518986 -54.83987522 442.40683305 C-54.23530491 443.04749712 -53.6307346 443.68816118 -53.00784397 444.3482393 C-39.30567142 457.69218512 -20.07611778 459.56686965 -1.94979954 459.54054582 C-0.79140434 459.54281138 0.36699086 459.54507693 1.56048894 459.54741114 C4.74892475 459.55261637 7.93732475 459.55340119 11.12576342 459.55221677 C14.5751078 459.55201155 18.02444396 459.55754296 21.47378445 459.56227434 C28.22156842 459.57055531 34.96934366 459.57332802 41.7171323 459.57388671 C47.2059054 459.57436307 52.69467564 459.57642378 58.18344784 459.57958734 C73.76930659 459.5883868 89.35515849 459.5930078 104.94101974 459.59225687 C105.77999433 459.59221691 106.61896891 459.59217695 107.48336697 459.59213579 C108.74337782 459.59207447 108.74337782 459.59207447 110.02884343 459.59201191 C123.63726638 459.59160559 137.24566165 459.60117324 150.85407659 459.61527415 C164.85079634 459.62966218 178.84750261 459.63654301 192.84422994 459.63568038 C200.69280337 459.63534925 208.54134777 459.6380591 216.38991451 459.64885843 C223.07277528 459.6579954 229.75559384 459.66011254 236.43845817 459.653349 C239.84275787 459.6500999 243.2469112 459.6510706 246.65121365 459.65870225 C271.37263622 459.71051344 294.09216007 459.26725854 313.03512478 441.09433305 C317.63094716 436.26045369 321.17366107 431.36043061 324.16012478 425.40683305 C324.7421365 424.2466768 324.7421365 424.2466768 325.33590603 423.06308305 C330.86340418 411.32468698 331.3124327 399.32118839 331.29383755 386.51675737 C331.2961031 385.35836217 331.29836866 384.19996697 331.30070287 383.00646889 C331.3059081 379.81803309 331.30669292 376.62963308 331.30550849 373.44119442 C331.30530328 369.99185004 331.31083468 366.54251387 331.31556606 363.09317338 C331.32384703 356.34538941 331.32661974 349.59761417 331.32717844 342.84982553 C331.3276548 337.36105243 331.3297155 331.87228219 331.33287907 326.38350999 C331.34167852 310.79765124 331.34629953 295.21179935 331.34554859 279.62593809 C331.34550864 278.7869635 331.34546868 277.94798892 331.34542751 277.08359087 C331.34538663 276.24358363 331.34534575 275.4035764 331.34530363 274.5381144 C331.34489732 260.92969145 331.35446497 247.32129618 331.36856588 233.71288124 C331.3829539 219.71616149 331.38983474 205.71945522 331.3889721 191.72272789 C331.38864098 183.87415446 331.39135083 176.02561006 331.40215015 168.17704332 C331.41128713 161.49418255 331.41340427 154.81136399 331.40664073 148.12849966 C331.40339162 144.72419996 331.40436233 141.32004663 331.41199398 137.91574419 C331.46692785 111.70435289 330.38018774 90.01847625 311.16012478 70.40683305 C310.55555447 69.76616899 309.95098415 69.12550493 309.32809353 68.4654268 C295.62592097 55.12148098 276.39636734 53.24679645 258.2700491 53.27312028 C257.1116539 53.27085473 255.9532587 53.26858917 254.75976062 53.26625496 C251.57132481 53.26104973 248.3829248 53.26026491 245.19448614 53.26144934 C241.74514176 53.26165455 238.2958056 53.25612315 234.84646511 53.25139177 C228.09868113 53.2431108 221.35090589 53.24033809 214.60311726 53.23977939 C209.11434415 53.23930303 203.62557392 53.23724233 198.13680172 53.23407876 C182.55094296 53.22527931 166.96509107 53.2206583 151.37922981 53.22140924 C150.54025523 53.2214492 149.70128065 53.22148915 148.83688259 53.22153032 C147.57687174 53.22159164 147.57687174 53.22159164 146.29140612 53.2216542 C132.68298317 53.22206051 119.07458791 53.21249286 105.46617296 53.19839195 C91.46945321 53.18400393 77.47274695 53.1771231 63.47601962 53.17798573 C55.62744619 53.17831685 47.77890179 53.175607 39.93033504 53.16480768 C33.24747428 53.15567071 26.56465571 53.15355356 19.88179138 53.1603171 C16.47749168 53.16356621 13.07333835 53.1625955 9.66903591 53.15496385 C-16.54235538 53.10002998 -38.22823203 54.18677009 -57.83987522 73.40683305 Z " fill="#523393" transform="translate(127.83987522125244,-0.40683305263519287)"/>
<path d="M0 0 C1.57007813 0.83144531 1.57007813 0.83144531 3.171875 1.6796875 C11.4660945 6.26564484 18.71754498 11.98284537 26 18 C26.79792969 18.65355469 27.59585938 19.30710938 28.41796875 19.98046875 C33.10335735 23.94084557 37.1114384 28.2627444 41 33 C42.25296875 34.49660156 42.25296875 34.49660156 43.53125 36.0234375 C68.73763993 66.67160594 80.78018477 106.00695627 77.50390625 145.58203125 C76.65561623 153.83934226 74.94155019 161.9384554 73 170 C72.8354834 170.68384766 72.6709668 171.36769531 72.50146484 172.07226562 C68.15154506 189.33316366 59.78869107 206.85482726 49 221 C48.35160156 221.86753906 47.70320313 222.73507812 47.03515625 223.62890625 C37.36214831 236.00387171 25.99827791 247.17200292 13 256 C12.13375 256.59941406 11.2675 257.19882812 10.375 257.81640625 C-23.0700933 280.06336563 -64.14343081 287.47136008 -103.42578125 280.03125 C-131.66749183 274.10619696 -156.12540156 260.79103149 -177 241 C-178.43666016 239.66001953 -178.43666016 239.66001953 -179.90234375 238.29296875 C-207.80079418 211.75376623 -222.5598857 174.31277687 -223.95703125 136.15625 C-224.49090207 96.94101157 -211.1663369 61.83036845 -186 32 C-185.14577674 30.91671129 -184.29159869 29.83338693 -183.4375 28.75 C-180.23263422 25.13425399 -176.69055515 22.10815857 -173 19 C-172.10023438 18.21238281 -171.20046875 17.42476562 -170.2734375 16.61328125 C-123.04425685 -24.07359865 -54.18332209 -29.46033086 0 0 Z M-141 76 C-155.66048649 93.74372283 -162.5591325 116.55539035 -160.7265625 139.41015625 C-158.28426776 161.32168739 -149.82464277 179.5905811 -134 195 C-133.26007813 195.73734375 -132.52015625 196.4746875 -131.7578125 197.234375 C-115.77030699 212.34344614 -93.99394198 220.47544074 -72.09375 220.14453125 C-47.09063118 218.97645625 -26.49965362 209.75428663 -9 192 C-8.32324219 191.33355469 -7.64648438 190.66710937 -6.94921875 189.98046875 C7.10771293 175.14798222 14.83142866 153.70263017 15.3125 133.4375 C15.24500611 131.62326421 15.13828046 129.81021696 15 128 C14.91878906 126.88625 14.83757812 125.7725 14.75390625 124.625 C12.2777628 100.5272741 1.0083611 80.13814604 -17 64 C-55.24015465 32.90147016 -108.88176762 39.95807431 -141 76 Z " fill="#CB319B" transform="translate(329,124)"/>
<path d="M0 0 C0.00331015 0.90445925 0.00662029 1.8089185 0.01003075 2.7407856 C0.09140946 24.79377237 0.18355014 46.84669158 0.28752708 68.89958382 C0.33755355 79.56438909 0.38399727 90.22918706 0.421875 100.89404297 C0.45491564 110.194368 0.49481272 119.49463464 0.54279006 128.79489505 C0.56793553 133.71489552 0.58975147 138.63485786 0.60334396 143.55490494 C0.61627359 148.19568337 0.63844285 152.83633019 0.66738319 157.47703552 C0.67637451 159.17077578 0.68212917 160.86453718 0.68421364 162.55830002 C0.71537921 184.0557912 3.3110785 203.3773959 18.625 219.6484375 C34.02906625 234.90048994 52.03449548 238.16400016 72.89007568 238.13371277 C74.04847088 238.13597833 75.20686608 238.13824388 76.40036416 238.14057809 C79.58879997 238.14578332 82.77719997 238.14656814 85.96563864 238.14538372 C89.41498302 238.1451785 92.86431918 238.1507099 96.31365967 238.15544128 C103.06144365 238.16372225 109.80921888 238.16649496 116.55700752 238.16705366 C122.04578062 238.16753002 127.53455086 238.16959073 133.02332306 238.17275429 C148.60918182 238.18155374 164.19503371 238.18617475 179.78089496 238.18542381 C180.61986955 238.18538386 181.45884413 238.1853439 182.32324219 238.18530273 C183.58325304 238.18524141 183.58325304 238.18524141 184.86871865 238.18517885 C198.47714161 238.18477254 212.08553687 238.19434019 225.69395182 238.2084411 C239.69067156 238.22282913 253.68737783 238.22970996 267.68410516 238.22884732 C275.53267859 238.2285162 283.38122299 238.23122605 291.22978973 238.24202538 C297.9126505 238.25116235 304.59546907 238.25327949 311.2783334 238.24651595 C314.6826331 238.24326685 318.08678642 238.24423755 321.49108887 238.2518692 C345.76718468 238.30274707 368.69235466 238.02984645 387.375 220.1875 C403.46670645 203.16742587 405.07372011 183.51456195 405.31640625 161.2734375 C405.33701886 159.67346717 405.35801633 158.07350175 405.37937927 156.47354126 C405.43415578 152.2946983 405.4837579 148.11580989 405.53222656 143.93688965 C405.58276932 139.65970898 405.638283 135.38259302 405.69335938 131.10546875 C405.80039625 122.73703413 405.90195843 114.36854482 406 106 C409.47955016 106.46462089 412.95856246 106.93315956 416.4375 107.40234375 C417.41138672 107.53233765 418.38527344 107.66233154 419.38867188 107.79626465 C426.52842064 108.76186194 433.60700737 109.92631388 440.6875 111.25390625 C444.53427861 111.95233471 448.39873783 112.49833398 452.26953125 113.04663086 C453.52999268 113.22552353 454.7904541 113.4044162 456.08911133 113.58872986 C457.53000122 113.79230858 457.53000122 113.79230858 459 114 C459.06994985 123.91083034 459.12303728 133.82160057 459.15543652 143.73262882 C459.17099768 148.33624645 459.19205817 152.93969343 459.22631836 157.54321289 C459.25925661 161.99770691 459.27692451 166.45203828 459.28463173 170.90664482 C459.29011412 172.59404493 459.30081689 174.28143759 459.31719017 175.96876717 C459.61704073 208.19306463 448.00605001 235.8874734 425.8125 259.18359375 C414.36126218 270.65073607 400.87732177 278.73881559 386 285 C385.09765625 285.38027344 384.1953125 285.76054687 383.265625 286.15234375 C366.502827 292.72355894 349.75221322 292.43953532 332.0169456 292.39217401 C328.21727977 292.38532632 324.41765385 292.39589279 320.61799622 292.40411377 C313.19341481 292.41739287 305.76892483 292.4145995 298.34433997 292.40587585 C292.30553608 292.39907664 286.26675767 292.39819221 280.22795105 292.4014473 C278.93446374 292.40213684 278.93446374 292.40213684 277.61484537 292.40284032 C275.86257334 292.40379958 274.11030132 292.40477223 272.35802931 292.4057581 C255.96047678 292.41429493 239.56297473 292.40450472 223.16543049 292.388357 C209.12214325 292.37495537 195.07893043 292.37728395 181.03564453 292.39111328 C164.6932797 292.40719933 148.350959 292.41347112 132.00858736 292.40427649 C130.26307456 292.40332093 128.51756176 292.40237782 126.77204895 292.4014473 C125.48410243 292.40075306 125.48410243 292.40075306 124.17013678 292.40004479 C118.14467892 292.39746396 112.11924926 292.40180624 106.09379578 292.40888596 C98.74205425 292.41733486 91.39040871 292.41495001 84.03867805 292.39904372 C80.29396912 292.39120633 76.54941973 292.38799109 72.8047123 292.39799118 C44.12105059 292.46831498 44.12105059 292.46831498 32 289 C31.24510033 288.80277029 30.49020065 288.60554058 29.71242523 288.40233421 C0.30007895 280.28076135 -24.37663892 259.74608289 -39.51879883 233.55541992 C-50.03886144 214.60419159 -53.64564391 194.41314294 -53.45410156 172.95239258 C-53.45296935 171.13680547 -53.45361421 169.32121655 -53.45587158 167.50563049 C-53.45700508 162.64310796 -53.43372052 157.78099149 -53.40557575 152.91856217 C-53.380331 147.81240363 -53.37820211 142.70623268 -53.37347412 137.60002136 C-53.36111142 127.96033941 -53.32838193 118.32084196 -53.28807616 108.68124074 C-53.24314798 97.69433641 -53.22131882 86.70742262 -53.20129442 75.72044909 C-53.15964229 53.14686433 -53.08942266 30.57344257 -53 8 C-50.95260854 7.51566995 -48.90443972 7.03462537 -46.85595703 6.55493164 C-45.14522507 6.15257042 -45.14522507 6.15257042 -43.39993286 5.74208069 C-38.58750699 4.69170456 -33.7606046 4.03673176 -28.875 3.4375 C-22.30848259 2.59395635 -15.79560365 1.71801608 -9.31640625 0.33203125 C-6.20403443 -0.11409287 -3.14023243 -0.01942223 0 0 Z " fill="#FEA150" transform="translate(53,220)"/>
<path d="M0 0 C24.16261472 12.60682995 45.09642799 35.74037229 53.90380859 61.70996094 C57.60396919 73.48452727 60.19986976 84.49357186 60.15931702 96.88548279 C60.16059865 98.32778113 60.16059865 98.32778113 60.16190618 99.79921681 C60.16354928 103.01126459 60.15805878 106.22325979 60.15258789 109.43530273 C60.15230574 111.74172464 60.1524643 114.04814663 60.1530304 116.35456848 C60.15331728 122.61016068 60.14743804 128.8657337 60.14045644 135.12132144 C60.13420488 141.66096318 60.13361767 148.20060536 60.13243103 154.74024963 C60.12984271 165.71477592 60.12343007 176.6892955 60.11450195 187.66381836 C60.10531721 198.96557582 60.09824157 210.26733136 60.09399414 221.5690918 C60.09373142 222.2662097 60.09346869 222.9633276 60.09319801 223.68157028 C60.09189293 227.1789485 60.09062923 230.67632674 60.08938611 234.17370498 C60.07902628 263.16919331 60.06134459 292.16467468 60.0390625 321.16015625 C57.80656727 321.00889512 55.5742313 320.85528237 53.34196472 320.70068359 C52.09881595 320.61539398 50.85566717 320.53010437 49.57484722 320.44223022 C45.30225711 320.10137619 41.12187601 319.5201764 36.90234375 318.78515625 C35.74414375 318.59107178 35.74414375 318.59107178 34.56254578 318.39306641 C32.96345712 318.12385047 31.36488195 317.85156597 29.7668457 317.57617188 C27.31772454 317.1543279 24.86707564 316.74244582 22.41601562 316.33203125 C20.84886277 316.06697064 19.28180174 315.80136641 17.71484375 315.53515625 C16.98679031 315.41221191 16.25873688 315.28926758 15.50862122 315.16259766 C12.59000491 314.6577258 9.85439209 314.09859945 7.0390625 313.16015625 C7.03409728 311.54062703 7.03409728 311.54062703 7.02903175 309.88838005 C6.94792525 283.57934865 6.85557559 257.27037485 6.75153542 230.96142387 C6.70148022 218.23845488 6.6550366 205.51549211 6.6171875 192.79248047 C6.58417699 181.69907963 6.54429604 170.60572805 6.49627244 159.51238167 C6.47109736 153.64222766 6.44928979 147.77210595 6.43571854 141.90191269 C6.42281628 136.36814075 6.40067504 130.83448008 6.37167931 125.30076981 C6.362667 123.27806558 6.35692828 121.25534347 6.35484886 119.23262024 C6.32767202 96.79701637 4.49140605 76.59389627 -11.5859375 59.51171875 C-26.12082787 45.1202648 -43.34582505 41.09985923 -63.17431641 40.95483398 C-64.03409088 40.94493439 -64.89386536 40.93503479 -65.7796936 40.92483521 C-68.58226907 40.8935984 -71.3848614 40.86861472 -74.1875 40.84375 C-76.1461935 40.82314768 -78.10488288 40.80215042 -80.06356812 40.78077698 C-85.18935791 40.72589453 -90.31518555 40.67633776 -95.44104004 40.62792969 C-100.68338339 40.5774658 -105.92567259 40.52191036 -111.16796875 40.46679688 C-121.43224527 40.35962981 -131.69656906 40.25809486 -141.9609375 40.16015625 C-139.24345018 38.08515764 -136.63041197 36.37131433 -133.56640625 34.84765625 C-132.69048828 34.41066406 -131.81457031 33.97367188 -130.91210938 33.5234375 C-130.00009766 33.07355469 -129.08808594 32.62367187 -128.1484375 32.16015625 C-127.30990234 31.74121094 -126.47136719 31.32226562 -125.60742188 30.890625 C-120.77560902 28.49028275 -115.92448518 26.13810041 -111.04663086 23.83300781 C-100.35660542 18.77387059 -89.76531517 13.56599613 -79.25390625 8.14453125 C-75.73767099 6.34206108 -72.2207646 4.54090481 -68.70385742 2.73974609 C-66.30606343 1.50586103 -63.91236387 0.26638295 -61.52319336 -0.98388672 C-58.00932703 -2.82177681 -54.47606401 -4.6203717 -50.94140625 -6.41796875 C-49.88398727 -6.97921448 -48.8265683 -7.54046021 -47.73710632 -8.11871338 C-32.08212192 -15.97836783 -14.62866822 -7.30421747 0 0 Z " fill="#CA319B" transform="translate(451.9609375,12.83984375)"/>
<path d="M0 0 C1.86603882 0.2769873 1.86603882 0.2769873 3.76977539 0.55957031 C12.42467551 1.82729587 21.0707743 3.0395537 29.76864624 3.97570801 C33.6781177 4.40645099 37.57918262 4.8959941 41.48071289 5.39306641 C43.47596661 5.63392686 45.47436792 5.84984469 47.47485352 6.04248047 C63.80749437 7.64689668 63.80749437 7.64689668 67.44570923 11.55160522 C69.97534172 15.75076277 70.84464091 20.26625398 72 25 C76.10916925 33.74010407 82.21500989 41.21500989 89 48 C89.69738281 48.69738281 90.39476562 49.39476562 91.11328125 50.11328125 C107.19858553 65.25758052 128.88715043 73.47723742 150.90625 73.14453125 C174.51550714 72.04157353 195.65061188 63.73776701 212.34667969 46.82128906 C215.76856678 43.05175603 218.87487513 39.01602906 222 35 C223.22291748 35.19634033 224.44583496 35.39268066 225.70581055 35.5949707 C230.35200725 36.34042571 234.99858359 37.08349227 239.64526367 37.82592773 C241.63592382 38.14431195 243.62648778 38.46329835 245.61694336 38.78295898 C248.51910171 39.24891867 251.42159179 39.71275018 254.32421875 40.17578125 C255.28391571 40.32959259 256.24361267 40.48340393 257.23239136 40.64187622 C262.18442933 41.42732039 267.13799739 42.16586723 272.10791016 42.82958984 C273.08073441 42.96084763 274.05355865 43.09210541 275.05586243 43.2273407 C276.9131847 43.47474739 278.77156965 43.71433381 280.63102722 43.94514465 C282.764065 44.22953144 284.88454628 44.60556172 287 45 C287.33 45.66 287.66 46.32 288 47 C287.30664062 48.8125 287.30664062 48.8125 286.15625 51 C285.52855713 52.19991577 285.52855713 52.19991577 284.88818359 53.42407227 C284.43008301 54.27412842 283.97198242 55.12418457 283.5 56 C282.80704834 57.29732056 282.80704834 57.29732056 282.10009766 58.62084961 C278.78879176 64.73531348 275.26850527 70.50057693 271 76 C270.44570313 76.75539063 269.89140625 77.51078125 269.3203125 78.2890625 C260.03157861 90.52786639 248.69933149 101.37503736 236 110 C235.13375 110.59941406 234.2675 111.19882812 233.375 111.81640625 C199.9299067 134.06336563 158.85656919 141.47136008 119.57421875 134.03125 C91.33250817 128.10619696 66.87459844 114.79103149 46 95 C45.04222656 94.10667969 44.08445313 93.21335937 43.09765625 92.29296875 C18.48506391 68.87953314 1.36356587 34.18998912 0 0 Z " fill="#E45260" transform="translate(106,270)"/>
<path d="M0 0 C3.47955016 0.46462089 6.95856246 0.93315956 10.4375 1.40234375 C11.41138672 1.53233765 12.38527344 1.66233154 13.38867188 1.79626465 C20.52842064 2.76186194 27.60700737 3.92631388 34.6875 5.25390625 C38.53427861 5.95233471 42.39873783 6.49833398 46.26953125 7.04663086 C48.16022339 7.31496986 48.16022339 7.31496986 50.08911133 7.58872986 C51.04970459 7.72444901 52.01029785 7.86016815 53 8 C53.06994985 17.91083034 53.12303728 27.82160057 53.15543652 37.73262882 C53.17099768 42.33624645 53.19205817 46.93969343 53.22631836 51.54321289 C53.25925661 55.99770691 53.27692451 60.45203828 53.28463173 64.90664482 C53.29011412 66.59404493 53.30081689 68.28143759 53.31719017 69.96876717 C53.61704073 102.19306463 42.00605001 129.8874734 19.8125 153.18359375 C8.36126218 164.65073607 -5.12267823 172.73881559 -20 179 C-21.35351562 179.57041016 -21.35351562 179.57041016 -22.734375 180.15234375 C-25.46427794 181.22249801 -28.19632934 182.14173347 -31 183 C-32.46759766 183.45052734 -32.46759766 183.45052734 -33.96484375 183.91015625 C-37.95535758 184.91127699 -41.92113862 185.52191733 -46 186 C-47.00401855 186.12616699 -48.00803711 186.25233398 -49.04248047 186.38232422 C-71.65787598 188.8308738 -87.02821304 182.33293052 -106.76269531 172.14648438 C-112.60492609 169.15212839 -118.5962915 166.50670628 -124.60549927 163.86846924 C-127.5935165 162.55392283 -130.57148805 161.21698602 -133.55078125 159.8828125 C-135.20327881 159.14466309 -135.20327881 159.14466309 -136.88916016 158.39160156 C-141.30526614 156.41610289 -145.715117 154.42683917 -150.125 152.4375 C-157.61032749 149.06498981 -165.10600257 145.71579571 -172.60662842 142.37747192 C-174.39766146 141.58023324 -176.18833682 140.78219116 -177.97900391 139.98413086 C-179.07776855 139.49565674 -180.1765332 139.00718262 -181.30859375 138.50390625 C-182.28626709 138.06892822 -183.26394043 137.6339502 -184.27124023 137.18579102 C-186.82988558 136.07392375 -189.40401564 135.02119162 -192 134 C-192 133.67 -192 133.34 -192 133 C-191.33776617 132.99668985 -190.67553234 132.99337971 -189.99323082 132.98996925 C-173.82358907 132.90848254 -157.65404631 132.81630789 -141.48453331 132.71247292 C-133.66483865 132.66251097 -125.84515361 132.6160673 -118.02539062 132.578125 C-111.2037239 132.5450164 -104.38213571 132.50508358 -97.56055605 132.45720994 C-93.95400362 132.43213086 -90.34750202 132.4102966 -86.74088669 132.39665604 C-82.6987265 132.38123958 -78.65681122 132.35057626 -74.61474609 132.31884766 C-73.44013321 132.31668747 -72.26552032 132.31452728 -71.05531311 132.31230164 C-51.37691432 132.11642151 -33.25527605 128.15974264 -18.625 114.1875 C-2.53329355 97.16742587 -0.92627989 77.51456195 -0.68359375 55.2734375 C-0.66298114 53.67346717 -0.64198367 52.07350175 -0.62062073 50.47354126 C-0.56584422 46.2946983 -0.5162421 42.11580989 -0.46777344 37.93688965 C-0.41723068 33.65970898 -0.361717 29.38259302 -0.30664062 25.10546875 C-0.19960375 16.73703413 -0.09804157 8.36854482 0 0 Z " fill="#FE5D4A" transform="translate(459,326)"/>
<path d="M0 0 C0 61.05 0 122.1 0 185 C-16.10738673 183.84947238 -16.10738673 183.84947238 -23.13671875 182.625 C-23.90885208 182.49561035 -24.68098541 182.3662207 -25.47651672 182.23291016 C-27.07560538 181.96369422 -28.67418055 181.69140972 -30.2722168 181.41601562 C-32.72133796 180.99417165 -35.17198686 180.58228957 -37.62304688 180.171875 C-39.19019973 179.90681439 -40.75726076 179.64121016 -42.32421875 179.375 C-43.05227219 179.25205566 -43.78032562 179.12911133 -44.53044128 179.00244141 C-47.44905759 178.49756955 -50.18467041 177.9384432 -53 177 C-53 121.23 -53 65.46 -53 8 C-26.10244845 3.32216495 -26.10244845 3.32216495 -15.8125 1.75 C-14.70970703 1.57726562 -13.60691406 1.40453125 -12.47070312 1.2265625 C-11.41431641 1.06414062 -10.35792969 0.90171875 -9.26953125 0.734375 C-7.88664917 0.52119629 -7.88664917 0.52119629 -6.47583008 0.30371094 C-4 0 -4 0 0 0 Z " fill="#FE4C94" transform="translate(512,149)"/>
<path d="M0 0 C2.49288798 -0.39137207 3.9540881 -0.41695387 6.32543945 0.46704102 C9.44344526 3.70522692 11.30143544 7.48228312 13.32543945 11.46704102 C13.9904549 12.6997041 14.65717822 13.93144704 15.32543945 15.16235352 C20.33458863 24.58344825 24.21596406 34.26644491 27.32543945 44.46704102 C27.62708008 45.44930664 27.62708008 45.44930664 27.93481445 46.45141602 C37.16486598 77.63402251 35.71534902 117.29312548 20.32543945 146.46704102 C-1.37125128 143.32071018 -23.02415071 139.91507565 -44.67456055 136.46704102 C-43.80795564 132.60708817 -42.21865113 129.53201704 -40.36206055 126.02954102 C-29.80309658 105.45102376 -27.860183 82.72736765 -34.60522461 60.60595703 C-41.15660894 40.46784693 -53.77774537 24.98320041 -70.67456055 12.46704102 C-67.72177729 10.49851885 -66.72792037 10.15811421 -63.36987305 9.79125977 C-62.49057129 9.6880542 -61.61126953 9.58484863 -60.70532227 9.47851562 C-59.7464209 9.371604 -58.78751953 9.26469238 -57.79956055 9.15454102 C-47.12096399 7.87018849 -36.55310315 6.14682812 -25.96411133 4.26855469 C-19.15582528 3.06134073 -12.34426925 1.9270703 -5.5065918 0.89819336 C-3.66798874 0.61828189 -1.83206491 0.31992151 0 0 Z " fill="#FE4C94" transform="translate(373.674560546875,169.532958984375)"/>
<path d="M0 0 C2.31026431 0.0056068 4.62053222 0.00987176 6.93080139 0.01286316 C12.96249529 0.0242266 18.99396672 0.0536192 25.02557373 0.0869751 C31.19996127 0.1178608 37.37438533 0.13140775 43.54882812 0.14648438 C55.62770101 0.1784982 67.70641001 0.22958979 79.78515625 0.29296875 C77.30858902 2.22868482 74.93109534 3.83436583 72.08764648 5.17138672 C71.01603523 5.67943848 71.01603523 5.67943848 69.92277527 6.19775391 C69.15419693 6.55659668 68.38561859 6.91543945 67.59375 7.28515625 C66.78484818 7.66736328 65.97594635 8.04957031 65.14253235 8.44335938 C62.50446053 9.68894208 59.86356095 10.92840533 57.22265625 12.16796875 C54.47467965 13.46373419 51.72746434 14.76110355 48.98031616 16.05862427 C47.14984209 16.92311482 45.31913317 17.7871083 43.4881897 18.65060425 C36.14938915 22.11342279 28.83761312 25.62909861 21.53515625 29.16796875 C12.82485742 33.38175786 4.07245049 37.49236169 -4.71484375 41.54296875 C-16.20957658 46.84261483 -27.59878913 52.34044905 -38.97192383 57.89538574 C-49.76774617 63.16576417 -60.61236092 68.30079867 -71.52978516 73.31567383 C-78.22992362 76.40637038 -84.88737654 79.5710492 -91.51953125 82.8046875 C-92.31433899 83.1921817 -93.10914673 83.5796759 -93.92803955 83.97891235 C-97.84467601 85.89069275 -101.75801447 87.80896752 -105.66796875 89.734375 C-107.09764211 90.4349247 -108.52732896 91.13544685 -109.95703125 91.8359375 C-110.60268036 92.15616379 -111.24832947 92.47639008 -111.9135437 92.80632019 C-115.60883895 94.6131614 -119.28381695 96.08275523 -123.21484375 97.29296875 C-120.39192264 74.66746675 -110.28829653 54.26447781 -95.21484375 37.29296875 C-94.4259375 36.40351562 -93.63703125 35.5140625 -92.82421875 34.59765625 C-78.39541201 19.35663191 -59.53328992 8.48223177 -39.21484375 3.29296875 C-38.27813843 3.04417969 -37.34143311 2.79539063 -36.37634277 2.5390625 C-24.28550029 -0.28679478 -12.36135544 -0.08888469 0 0 Z " fill="#2D2D87" transform="translate(124.21484375,-0.29296875)"/>
<path d="M0 0 C0 47.19 0 94.38 0 143 C-10.12018415 139.62660528 -10.12018415 139.62660528 -14.42578125 137.6171875 C-15.38935547 137.17117188 -16.35292969 136.72515625 -17.34570312 136.265625 C-18.32474609 135.80671875 -19.30378906 135.3478125 -20.3125 134.875 C-31.16900267 129.82407377 -42.07809365 124.91485786 -53 120 C-53 83.04 -53 46.08 -53 8 C-44.84075649 6.11709765 -37.11401276 4.44803576 -28.875 3.4375 C-22.30848259 2.59395635 -15.79560365 1.71801608 -9.31640625 0.33203125 C-6.24040507 -0.10887954 -3.10744036 0 0 0 Z " fill="#E45260" transform="translate(53,220)"/>
<path d="M0 0 C7.86990041 4.18164187 15.49477099 8.67136535 23.0625 13.375 C24.19707616 14.07712917 25.33184637 14.77894486 26.46679688 15.48046875 C28.81471062 16.93206762 31.16180055 18.38498458 33.50830078 19.83886719 C38.99776063 23.23852781 44.49962349 26.61804277 50 30 C52.16672261 31.33324242 54.33338915 32.66657596 56.5 34 C57.5725 34.66 58.645 35.32 59.75 36 C90.625 55 90.625 55 121.5 74 C122.5739502 74.66088623 123.64790039 75.32177246 124.75439453 76.00268555 C126.90643514 77.32703068 129.05845362 78.6514118 131.21044922 79.97583008 C136.25188716 83.0784593 141.29353635 86.18074347 146.33599854 89.28170776 C148.69772107 90.73412821 151.05931444 92.18675861 153.42089844 93.6394043 C155.07214027 94.654989 156.72356709 95.67027292 158.375 96.68554688 C160.35795581 97.90534221 162.3401105 99.12644129 164.32128906 100.34912109 C166.04944051 101.41417397 167.78037037 102.47473794 169.51464844 103.52978516 C171.35954992 104.66010073 173.18284195 105.82560169 175 107 C175 107.33 175 107.66 175 108 C165.48031246 108.06997553 155.9607155 108.12304992 146.44082546 108.15543652 C142.0188065 108.17099225 137.59696545 108.19204233 133.17504883 108.22631836 C128.89561821 108.25927662 124.61635705 108.27692855 120.33680916 108.28463173 C118.71639405 108.29011064 117.09598661 108.30080619 115.47564507 108.31719017 C84.11072587 108.6212842 55.66803673 96.97067819 33.0625 75.0859375 C14.97120275 57.07359229 0.99896062 31.69811524 -0.09863281 5.66015625 C-0.10112008 3.7731527 -0.05572811 1.88618211 0 0 Z " fill="#FDE393" transform="translate(0,404)"/>
<path d="M0 0 C3.47955016 0.46462089 6.95856246 0.93315956 10.4375 1.40234375 C11.41138672 1.53233765 12.38527344 1.66233154 13.38867188 1.79626465 C20.52842064 2.76186194 27.60700737 3.92631388 34.6875 5.25390625 C38.53427861 5.95233471 42.39873783 6.49833398 46.26953125 7.04663086 C47.52999268 7.22552353 48.7904541 7.4044162 50.08911133 7.58872986 C51.04970459 7.72444901 52.01029785 7.86016815 53 8 C53.06994985 17.91083034 53.12303728 27.82160057 53.15543652 37.73262882 C53.17099768 42.33624645 53.19205817 46.93969343 53.22631836 51.54321289 C53.25925661 55.99770691 53.27692451 60.45203828 53.28463173 64.90664482 C53.29011412 66.59404493 53.30081689 68.28143759 53.31719017 69.96876717 C53.52909982 92.7422442 47.51999332 111.9297923 37 132 C36.05672852 131.70432129 35.11345703 131.40864258 34.14160156 131.10400391 C27.49731957 129.02352177 20.85110753 126.95028919 14.19470215 124.90887451 C11.14801952 123.9733029 8.10343549 123.03101015 5.05908203 122.08789062 C3.49906746 121.60626211 1.93816789 121.12749225 0.37646484 120.65136719 C-1.92327796 119.94952538 -4.21965737 119.2375178 -6.515625 118.5234375 C-7.21036926 118.31399506 -7.90511353 118.10455261 -8.62091064 117.88876343 C-12.25848546 116.74574665 -15.11913441 115.52374108 -18 113 C-17.57589844 112.59652344 -17.15179688 112.19304687 -16.71484375 111.77734375 C-12.51149386 107.42618376 -9.72037083 102.93840168 -7.1875 97.5 C-6.8980249 96.88374756 -6.6085498 96.26749512 -6.31030273 95.63256836 C-0.54811518 82.77741442 -0.83452028 69.10519448 -0.68359375 55.2734375 C-0.66298114 53.67346717 -0.64198367 52.07350175 -0.62062073 50.47354126 C-0.56584422 46.2946983 -0.5162421 42.11580989 -0.46777344 37.93688965 C-0.41723068 33.65970898 -0.361717 29.38259302 -0.30664062 25.10546875 C-0.19960375 16.73703413 -0.09804157 8.36854482 0 0 Z " fill="#E45261" transform="translate(459,326)"/>
<path d="M0 0 C2.10990177 0.01121424 4.21981934 0.01974387 6.32974243 0.02572632 C11.83736605 0.04844921 17.3440145 0.10722731 22.85125732 0.1739502 C28.48924576 0.23573246 34.12739439 0.26281758 39.765625 0.29296875 C50.7946953 0.35698865 61.82304727 0.45916415 72.8515625 0.5859375 C73.1815625 1.2459375 73.5115625 1.9059375 73.8515625 2.5859375 C64.60162359 7.22263095 55.35052205 11.85699618 46.09803677 16.48860645 C41.79910643 18.64065127 37.50054088 20.79341737 33.20288086 22.94799805 C-3.08473695 41.13912753 -3.08473695 41.13912753 -20.96592712 49.54008484 C-23.26436538 50.5939535 -23.26436538 50.5939535 -25.74711609 52.19119263 C-30.49750123 54.13913418 -34.75021645 53.98149083 -39.83544922 53.92651367 C-41.43147224 53.92717079 -41.43147224 53.92717079 -43.05973816 53.92784119 C-46.56605572 53.92575623 -50.07189127 53.90243828 -53.578125 53.87890625 C-56.01335387 53.87330927 -58.44858612 53.86903966 -60.88381958 53.86604309 C-67.28553636 53.85460241 -73.68704815 53.82514159 -80.08868408 53.79193115 C-86.62419868 53.76121372 -93.15974648 53.74753415 -99.6953125 53.73242188 C-112.51310816 53.70027142 -125.33076192 53.6496629 -138.1484375 53.5859375 C-135.38540099 51.74391316 -132.75547841 50.39861352 -129.75 49.00390625 C-128.6470459 48.49134277 -127.5440918 47.9787793 -126.40771484 47.45068359 C-125.19638446 46.89139491 -123.98495564 46.33231937 -122.7734375 45.7734375 C-122.15075989 45.48527161 -121.52808228 45.19710571 -120.88653564 44.90020752 C-110.63482356 40.15615935 -100.3432408 35.50434438 -90.02758789 30.90087891 C-82.49905692 27.54091602 -74.98154972 24.15755976 -67.47265625 20.75390625 C-66.54394714 20.33304749 -65.61523804 19.91218872 -64.65838623 19.47857666 C-60.93709608 17.79190365 -57.21593794 16.10494778 -53.49603271 14.41522217 C-50.89244501 13.23261063 -48.28806803 12.05175122 -45.68359375 10.87109375 C-44.92922531 10.52773483 -44.17485687 10.18437592 -43.39762878 9.83061218 C-41.85221094 9.13065435 -40.30084289 8.44372369 -38.74456787 7.76824951 C-36.87008176 6.91458382 -35.03052547 5.98275627 -33.21783447 5.00469971 C-22.24740073 -0.51204668 -12.04327388 -0.18975139 0 0 Z " fill="#8A3293" transform="translate(339.1484375,-0.5859375)"/>
<path d="M0 0 C0 33 0 66 0 100 C-7.425 100.99 -7.425 100.99 -15 102 C-17.52625849 102.44968814 -20.04885428 102.92195505 -22.5625 103.4375 C-32.65017157 105.30558733 -42.83489043 106.61384869 -53 108 C-53 79.95 -53 51.9 -53 23 C-3.46153846 0 -3.46153846 0 0 0 Z " fill="#893293" transform="translate(53,120)"/>
<path d="M0 0 C-1.58102689 2.66614162 -3.19316817 5.30106755 -4.8671875 7.91015625 C-19.60593048 31.05055622 -22.41823208 54.44754399 -17 81 C-25.22742373 80.41661694 -33.32851826 79.45777558 -41.4765625 78.1875 C-42.60903412 78.01371826 -43.74150574 77.83993652 -44.90829468 77.66088867 C-47.27657513 77.29644027 -49.64454424 76.92996324 -52.01220703 76.56152344 C-55.64920798 75.99623744 -59.28739499 75.4391048 -62.92578125 74.8828125 C-65.2344492 74.52652214 -67.54304567 74.16976824 -69.8515625 73.8125 C-70.9410318 73.64580811 -72.0305011 73.47911621 -73.15298462 73.30737305 C-74.65627823 73.07207886 -74.65627823 73.07207886 -76.18994141 72.83203125 C-77.07308014 72.69514893 -77.95621887 72.5582666 -78.86611938 72.41723633 C-81 72 -81 72 -83 71 C-86.45681121 51.09545805 -82.1857171 30.17923613 -77 11 C-76.44763672 10.92483154 -75.89527344 10.84966309 -75.32617188 10.7722168 C-72.71687366 10.41470835 -70.10845718 10.05109216 -67.5 9.6875 C-66.63246094 9.56955078 -65.76492187 9.45160156 -64.87109375 9.33007812 C-59.34374934 8.5546593 -53.86331131 7.6165931 -48.3828125 6.5625 C-40.48258119 5.04814023 -32.55540116 3.79827944 -24.59619141 2.63745117 C-22.34061387 2.30746945 -20.08634284 1.9693701 -17.83203125 1.63085938 C-16.37507115 1.41618323 -14.91804235 1.2019727 -13.4609375 0.98828125 C-12.16978027 0.79790283 -10.87862305 0.60752441 -9.54833984 0.41137695 C-6.32284134 0.03742863 -3.24251484 -0.07904763 0 0 Z " fill="#FE4C94" transform="translate(189,199)"/>
<path d="M0 0 C14.39908636 4.04376869 28.5803623 8.74436733 42.77746582 13.43777466 C49.90520973 15.79399942 57.03635048 18.13990724 64.16796875 20.484375 C64.88446217 20.71997698 65.60095558 20.95557896 66.33916092 21.19832039 C80.11904072 25.72777732 93.92772192 30.16411738 107.75 34.5625 C126.45072061 40.51541824 145.10273786 46.59987514 163.69189453 52.89306641 C165.75990707 53.58504935 167.83315198 54.26179989 169.91357422 54.91552734 C171.95905139 55.55962993 173.98328152 56.27082817 176 57 C176.33 57.66 176.66 58.32 177 59 C134.64228786 71.5339195 92.25684491 70.88791144 52.52514648 49.68652344 C40.884667 43.22567141 30.64756332 35.16298252 21 26 C20.52030762 25.54753906 20.04061523 25.09507812 19.54638672 24.62890625 C12.24042257 17.69634239 5.48048116 10.49751371 0 2 C0 1.34 0 0.68 0 0 Z " fill="#FE5C4A" transform="translate(131,339)"/>
<path d="M0 0 C6.85683903 5.2834567 12.51733992 12.65094453 14.09765625 21.3515625 C15.1703542 32.07854205 13.67633402 40.1460913 8.625 49.6875 C1.4598043 58.4019272 -6.34090479 63.78594229 -17.625 65.375 C-28.76854412 66.0736548 -36.88917627 62.47924177 -45.875 56.3125 C-53.40471638 48.78278362 -57.52046852 39.12320235 -57.6875 28.5 C-56.83910575 17.75367279 -52.90229537 8.67202264 -45.0078125 1.2578125 C-31.44547834 -9.01668307 -14.02219533 -9.32265848 0 0 Z " fill="#CB319C" transform="translate(418.6875,85.5)"/>
<path d="M0 0 C3.97157946 0.66192991 7.24935602 1.28560369 10.99560547 2.49047852 C12.4258606 2.94710876 12.4258606 2.94710876 13.88500977 3.41296387 C15.36118774 3.89110535 15.36118774 3.89110535 16.8671875 4.37890625 C17.78508057 4.67277222 18.70297363 4.96663818 19.64868164 5.26940918 C23.05891845 6.36254934 26.46682393 7.46295176 29.875 8.5625 C37.50625 11.016875 45.1375 13.47125 53 16 C53 32.5 53 49 53 66 C42.87981585 62.62660528 42.87981585 62.62660528 38.57421875 60.6171875 C37.62160156 60.17608643 36.66898438 59.73498535 35.6875 59.28051758 C34.6975 58.81669678 33.7075 58.35287598 32.6875 57.875 C30.57711091 56.89651403 28.46642845 55.91866059 26.35546875 54.94140625 C25.30020996 54.45172363 24.24495117 53.96204102 23.15771484 53.45751953 C18.28674779 51.20920708 13.39496519 49.0079601 8.5 46.8125 C5.695 45.554375 2.89 44.29625 0 43 C0 28.81 0 14.62 0 0 Z " fill="#FE5D4A" transform="translate(0,297)"/>
<path d="M0 0 C0 13.53 0 27.06 0 41 C-9.00082998 41 -9.00082998 41 -12.71606445 40.37329102 C-13.54664871 40.23637344 -14.37723297 40.09945587 -15.23298645 39.95838928 C-16.10098373 39.80840988 -16.96898102 39.65843048 -17.86328125 39.50390625 C-18.77708054 39.35090561 -19.69087982 39.19790497 -20.63237 39.04026794 C-22.54978169 38.71797072 -24.4666741 38.39257019 -26.38305664 38.06420898 C-29.31999084 37.56121709 -32.25842624 37.06789765 -35.19726562 36.57617188 C-37.06519868 36.26097624 -38.93304062 35.94524011 -40.80078125 35.62890625 C-41.67889969 35.48095108 -42.55701813 35.33299591 -43.46174622 35.18055725 C-44.27656967 35.04048752 -45.09139313 34.90041779 -45.9309082 34.75610352 C-46.64624222 34.63396988 -47.36157623 34.51183624 -48.09858704 34.38600159 C-50 34 -50 34 -53 33 C-53 24.75 -53 16.5 -53 8 C-44.02015489 5.70028357 -35.15536207 4.24981157 -25.97192383 3.06201172 C-20.37478592 2.33608985 -14.83919947 1.51342876 -9.31640625 0.33203125 C-6.24040507 -0.10887954 -3.10744036 0 0 0 Z " fill="#FE4C94" transform="translate(53,220)"/>
<path d="M0 0 C0 13.2 0 26.4 0 40 C-7.425 40.99 -7.425 40.99 -15 42 C-17.52625849 42.44968814 -20.04885428 42.92195505 -22.5625 43.4375 C-32.63988003 45.43252089 -42.81746192 46.66354188 -53 48 C-53 40.74 -53 33.48 -53 26 C-41.77851322 20.01520705 -30.49047292 14.18067567 -19.12548828 8.47412109 C-17.66500503 7.74045722 -16.2052073 7.00542715 -14.74609375 6.26904297 C-12.67523157 5.22468575 -10.60172682 4.18578009 -8.52734375 3.1484375 C-7.89791367 2.83014984 -7.26848358 2.51186218 -6.61997986 2.18392944 C-2.22912622 0 -2.22912622 0 0 0 Z " fill="#CA319B" transform="translate(53,180)"/>
</svg>
