<?xml version="1.0" standalone="no"?>
<!DOCTYPE svg PUBLIC "-//W3C//DTD SVG 20010904//EN"
 "http://www.w3.org/TR/2001/REC-SVG-20010904/DTD/svg10.dtd">
<svg version="1.0" xmlns="http://www.w3.org/2000/svg"
 width="199.000000pt" height="346.000000pt" viewBox="0 0 199.000000 346.000000"
 preserveAspectRatio="xMidYMid meet">

<g transform="translate(0.000000,346.000000) scale(0.100000,-0.100000)"
fill="#000000" stroke="none">
<path d="M801 3415 c-382 -86 -660 -352 -758 -725 -23 -85 -26 -121 -30 -332
l-5 -238 348 -1 c228 -1 334 -4 305 -10 -73 -14 -141 -39 -222 -80 -192 -99
-328 -266 -395 -484 -28 -89 -28 -93 -29 -375 0 -240 3 -298 18 -370 50 -233
182 -442 366 -582 89 -67 247 -143 356 -170 127 -31 333 -31 459 0 293 73 548
290 661 561 67 160 85 277 85 543 l0 178 -347 1 c-334 1 -345 1 -278 16 290
61 516 282 597 582 40 148 36 601 -7 763 -90 346 -353 615 -691 709 -102 28
-336 36 -433 14z m267 -669 c42 -22 79 -67 92 -111 8 -29 10 -285 8 -935 -3
-865 -4 -896 -22 -927 -34 -55 -73 -77 -147 -81 -81 -5 -136 19 -170 75 l-24
38 -3 885 c-2 487 0 904 3 927 7 47 41 95 90 124 37 23 134 26 173 5z"/>
</g>
</svg>
