<svg version="1.1" id="Layer_1" xmlns="http://www.w3.org/2000/svg" xmlns:xlink="http://www.w3.org/1999/xlink" x="0px" y="0px"
	 viewBox="0 0 33 32" style="enable-background:new 0 0 33 32;" xml:space="preserve">
  <g>
    <path
      d="M30.1378 0H2.86222C2.23572 0 1.63488 0.248877 1.19188 0.691879C0.748877 1.13488 0.5 1.73572 0.5 2.36222V29.6378C0.5 30.2643 0.748877 30.8651 1.19188 31.3081C1.63488 31.7511 2.23572 32 2.86222 32H30.1378C30.7643 32 31.3651 31.7511 31.8081 31.3081C32.2511 30.8651 32.5 30.2643 32.5 29.6378V2.36222C32.5 1.73572 32.2511 1.13488 31.8081 0.691879C31.3651 0.248877 30.7643 0 30.1378 0ZM10.0378 27.26H5.22667V11.9778H10.0378V27.26ZM7.62889 9.86C7.08315 9.85693 6.55055 9.69226 6.09831 9.38678C5.64607 9.08131 5.29445 8.64871 5.08784 8.14359C4.88122 7.63846 4.82886 7.08346 4.93738 6.54861C5.04589 6.01376 5.3104 5.52304 5.69754 5.13838C6.08468 4.75372 6.57709 4.49236 7.11262 4.38728C7.64816 4.28221 8.20282 4.33812 8.7066 4.54798C9.21039 4.75784 9.64072 5.11222 9.94329 5.56642C10.2459 6.02061 10.4071 6.55426 10.4067 7.1C10.4118 7.46538 10.3433 7.82805 10.2053 8.16641C10.0674 8.50476 9.86264 8.81187 9.60343 9.06942C9.34421 9.32698 9.0358 9.52971 8.69657 9.66553C8.35733 9.80136 7.99423 9.86749 7.62889 9.86ZM27.7711 27.2733H22.9622V18.9244C22.9622 16.4622 21.9156 15.7022 20.5644 15.7022C19.1378 15.7022 17.7378 16.7778 17.7378 18.9867V27.2733H12.9267V11.9889H17.5533V14.1067H17.6156C18.08 13.1667 19.7067 11.56 22.1889 11.56C24.8733 11.56 27.7733 13.1533 27.7733 17.82L27.7711 27.2733Z"
      fill="#0A66C2"
    />
  </g>
</svg>