<svg width="69" height="34" viewBox="0 0 69 34" fill="none" xmlns="http://www.w3.org/2000/svg">
<rect x="0.5" y="0.5" width="68" height="33" rx="7.5" stroke="#00AFFF"/>
<path d="M9.95312 12.0469H11.2314L14.4922 20.1611L17.7461 12.0469H19.0312L14.9844 22H13.9863L9.95312 12.0469ZM9.53613 12.0469H10.6641L10.8486 18.1172V22H9.53613V12.0469ZM18.3135 12.0469H19.4414V22H18.1289V18.1172L18.3135 12.0469ZM21.2324 18.3838V18.2266C21.2324 17.6934 21.3099 17.1989 21.4648 16.7432C21.6198 16.2829 21.8431 15.8841 22.1348 15.5469C22.4264 15.2051 22.7796 14.9408 23.1943 14.7539C23.609 14.5625 24.0739 14.4668 24.5889 14.4668C25.1084 14.4668 25.5755 14.5625 25.9902 14.7539C26.4095 14.9408 26.765 15.2051 27.0566 15.5469C27.3529 15.8841 27.5785 16.2829 27.7334 16.7432C27.8883 17.1989 27.9658 17.6934 27.9658 18.2266V18.3838C27.9658 18.917 27.8883 19.4115 27.7334 19.8672C27.5785 20.3229 27.3529 20.7217 27.0566 21.0635C26.765 21.4007 26.4118 21.665 25.9971 21.8564C25.5869 22.0433 25.1221 22.1367 24.6025 22.1367C24.083 22.1367 23.6159 22.0433 23.2012 21.8564C22.7865 21.665 22.431 21.4007 22.1348 21.0635C21.8431 20.7217 21.6198 20.3229 21.4648 19.8672C21.3099 19.4115 21.2324 18.917 21.2324 18.3838ZM22.4971 18.2266V18.3838C22.4971 18.7529 22.5404 19.1016 22.627 19.4297C22.7135 19.7533 22.8434 20.0404 23.0166 20.291C23.1943 20.5417 23.4154 20.7399 23.6797 20.8857C23.944 21.027 24.2516 21.0977 24.6025 21.0977C24.9489 21.0977 25.252 21.027 25.5117 20.8857C25.776 20.7399 25.9948 20.5417 26.168 20.291C26.3411 20.0404 26.471 19.7533 26.5576 19.4297C26.6488 19.1016 26.6943 18.7529 26.6943 18.3838V18.2266C26.6943 17.862 26.6488 17.5179 26.5576 17.1943C26.471 16.8662 26.3389 16.5768 26.1611 16.3262C25.988 16.071 25.7692 15.8704 25.5049 15.7246C25.2451 15.5788 24.9398 15.5059 24.5889 15.5059C24.2425 15.5059 23.9372 15.5788 23.6729 15.7246C23.4131 15.8704 23.1943 16.071 23.0166 16.3262C22.8434 16.5768 22.7135 16.8662 22.627 17.1943C22.5404 17.5179 22.4971 17.862 22.4971 18.2266ZM30.8164 15.7656V22H29.5518V14.6035H30.7822L30.8164 15.7656ZM33.127 14.5625L33.1201 15.7383C33.0153 15.7155 32.915 15.7018 32.8193 15.6973C32.7282 15.6882 32.6234 15.6836 32.5049 15.6836C32.2132 15.6836 31.9557 15.7292 31.7324 15.8203C31.5091 15.9115 31.32 16.0391 31.165 16.2031C31.0101 16.3672 30.887 16.5632 30.7959 16.791C30.7093 17.0143 30.6523 17.2604 30.625 17.5293L30.2695 17.7344C30.2695 17.2878 30.3128 16.8685 30.3994 16.4766C30.4906 16.0846 30.6296 15.7383 30.8164 15.4375C31.0033 15.1322 31.2402 14.8952 31.5273 14.7266C31.819 14.5534 32.1654 14.4668 32.5664 14.4668C32.6576 14.4668 32.7624 14.4782 32.8809 14.501C32.9993 14.5192 33.0814 14.5397 33.127 14.5625ZM37.2285 22.1367C36.7135 22.1367 36.2464 22.0501 35.8271 21.877C35.4124 21.6992 35.0547 21.4508 34.7539 21.1318C34.4577 20.8128 34.2298 20.4346 34.0703 19.9971C33.9108 19.5596 33.8311 19.0811 33.8311 18.5615V18.2744C33.8311 17.6729 33.9199 17.1374 34.0977 16.668C34.2754 16.194 34.5169 15.793 34.8223 15.4648C35.1276 15.1367 35.474 14.8883 35.8613 14.7197C36.2487 14.5511 36.6497 14.4668 37.0645 14.4668C37.5931 14.4668 38.0488 14.5579 38.4316 14.7402C38.819 14.9225 39.1357 15.1777 39.3818 15.5059C39.6279 15.8294 39.8102 16.2122 39.9287 16.6543C40.0472 17.0918 40.1064 17.5703 40.1064 18.0898V18.6572H34.583V17.625H38.8418V17.5293C38.8236 17.2012 38.7552 16.8822 38.6367 16.5723C38.5228 16.2624 38.3405 16.0072 38.0898 15.8066C37.8392 15.6061 37.4974 15.5059 37.0645 15.5059C36.7773 15.5059 36.513 15.5674 36.2715 15.6904C36.0299 15.8089 35.8226 15.9867 35.6494 16.2236C35.4762 16.4606 35.3418 16.75 35.2461 17.0918C35.1504 17.4336 35.1025 17.8278 35.1025 18.2744V18.5615C35.1025 18.9124 35.1504 19.2428 35.2461 19.5527C35.3464 19.8581 35.4899 20.127 35.6768 20.3594C35.8682 20.5918 36.0983 20.7741 36.3672 20.9062C36.6406 21.0384 36.9505 21.1045 37.2969 21.1045C37.7435 21.1045 38.1217 21.0133 38.4316 20.8311C38.7415 20.6488 39.0127 20.4049 39.2451 20.0996L40.0107 20.708C39.8512 20.9495 39.6484 21.1797 39.4023 21.3984C39.1562 21.6172 38.8532 21.7949 38.4932 21.9316C38.1377 22.0684 37.7161 22.1367 37.2285 22.1367Z" fill="#00AFFF"/>
<path d="M47 14L53 20L59 14L47 14Z" fill="#7A88A5"/>
</svg>
