<svg version="1.1" id="Layer_1" xmlns="http://www.w3.org/2000/svg" xmlns:xlink="http://www.w3.org/1999/xlink" x="0px" y="0px"
	 viewBox="0 0 33 26" style="enable-background:new 0 0 33 26;" xml:space="preserve">
  <g>
    <path
      d="M10.5634 26.0009C22.6389 26.0009 29.2437 15.9965 29.2437 7.32061C29.2437 7.03645 29.2437 6.75357 29.2245 6.47197C30.5094 5.54258 31.6185 4.39182 32.5 3.07357C31.3019 3.60477 30.0307 3.95298 28.7291 4.10653C30.0998 3.28612 31.1255 1.99558 31.6155 0.475172C30.3268 1.23998 28.9168 1.77894 27.4466 2.06877C26.4567 1.01621 25.1475 0.319227 23.7216 0.0856846C22.2957 -0.147858 20.8326 0.0950582 19.5586 0.776843C18.2847 1.45863 17.271 2.54127 16.6743 3.85724C16.0777 5.1732 15.9314 6.64913 16.2581 8.05661C13.6479 7.92568 11.0943 7.24732 8.76327 6.06558C6.4322 4.88384 4.37569 3.22512 2.7272 1.19709C1.88764 2.64242 1.6305 4.3534 2.00813 5.98166C2.38577 7.60991 3.36979 9.03303 4.75984 9.96125C3.71498 9.93064 2.69286 9.64877 1.78 9.13949V9.22269C1.78041 10.7385 2.30513 12.2075 3.26516 13.3805C4.22519 14.5535 5.56141 15.3584 7.0472 15.6585C6.08064 15.9222 5.0665 15.9607 4.08272 15.7712C4.50242 17.0756 5.31924 18.2163 6.41899 19.0338C7.51873 19.8512 8.84644 20.3046 10.2165 20.3305C8.85525 21.4005 7.29642 22.1916 5.62917 22.6585C3.96191 23.1255 2.21895 23.2591 0.5 23.0518C3.50244 24.9785 6.9959 26.0005 10.5634 25.9958"
      fill="#1DA1F2"
    />
  </g>
</svg>