<svg width="16" height="16" viewBox="0 0 16 16" fill="none" xmlns="http://www.w3.org/2000/svg">
<g clip-path="url(#clip0_13598_18842)">
<path d="M6.53338 6.33338C6.53338 6.86672 7.13338 7.53338 8.00005 7.53338C9.26672 7.53338 10.5334 8.40005 10.5334 9.66671C10.5334 10.8 9.60005 11.6 8.53338 11.8V12C8.53338 12.2667 8.33338 12.5334 8.00005 12.5334C7.66672 12.5334 7.46671 12.3334 7.46671 12V11.8C6.40005 11.6 5.46672 10.8 5.46672 9.66671C5.46672 9.40005 5.66672 9.13338 6.00005 9.13338C6.33338 9.13338 6.53338 9.33338 6.53338 9.66671C6.53338 10.2 7.13338 10.8667 8.00005 10.8667C8.86672 10.8667 9.46671 10.2667 9.46671 9.66671C9.46671 9.06672 8.86672 8.46671 8.00005 8.46671C6.73338 8.46671 5.46672 7.60005 5.46672 6.33338C5.46672 5.20005 6.40005 4.40005 7.46671 4.20005V4.00005C7.46671 3.73338 7.66672 3.46672 8.00005 3.46672C8.33338 3.46672 8.53338 3.66672 8.53338 4.00005V4.20005C9.60005 4.40005 10.5334 5.20005 10.5334 6.33338C10.5334 6.60005 10.3334 6.86672 10 6.86672C9.66671 6.86672 9.46671 6.66672 9.46671 6.33338C9.46671 5.80005 8.86672 5.13338 8.00005 5.13338C7.13338 5.13338 6.53338 5.80005 6.53338 6.33338ZM15.2 8.00005C15.2 11.9334 12 15.2 8.00005 15.2C4.00005 15.2 0.800049 11.9334 0.800049 8.00005C0.800049 4.06672 4.06672 0.800049 8.00005 0.800049C11.9334 0.800049 15.2 4.06672 15.2 8.00005ZM14.1334 8.00005C14.1334 4.60005 11.4 1.86672 8.00005 1.86672C4.60005 1.86672 1.86672 4.60005 1.86672 8.00005C1.86672 11.4 4.60005 14.1334 8.00005 14.1334C11.4 14.1334 14.1334 11.4 14.1334 8.00005Z" fill="white"/>
</g>
<defs>
<clipPath id="clip0_13598_18842">
<rect width="16" height="16" fill="white"/>
</clipPath>
</defs>
</svg>
