<svg width="34" height="34" viewBox="0 0 34 34" fill="none" xmlns="http://www.w3.org/2000/svg">
<g clip-path="url(#clip0_20617_3528)">
<circle cx="17" cy="17" r="17" fill="white"/>
<path d="M34 17C34 7.61106 26.3889 0 16.9997 0C7.61185 0 0 7.61114 0 17.0001C0 26.3891 7.61185 34 16.9997 34C26.3889 34 34 26.3889 34 17.0001V17ZM25.4824 8.94704L22.0397 12.3899C22.0397 12.3894 22.0388 12.3894 22.0388 12.3886L21.1434 13.2835C20.6282 12.7656 20.0155 12.3551 19.3406 12.0756C18.6657 11.7961 17.9421 11.6533 17.2116 11.6553C15.7375 11.6569 14.3243 12.2432 13.282 13.2856C12.2396 14.3279 11.6534 15.7412 11.6518 17.2153C11.6532 18.6896 12.2394 20.103 13.2817 21.1455C14.3241 22.188 15.7374 22.7744 17.2116 22.776C18.47 22.7744 19.6907 22.3466 20.6749 21.5625C21.6591 20.7783 22.3488 19.684 22.6315 18.4578H15.9691L18.4531 15.9736H25.159C25.223 16.3844 25.2553 16.7996 25.2553 17.2153C25.253 19.3481 24.4049 21.3928 22.8969 22.901C21.3889 24.4091 19.3443 25.2575 17.2116 25.26C16.1556 25.2606 15.1099 25.0527 14.1345 24.6481C13.1591 24.2434 12.2732 23.6501 11.5278 22.9021L10.3568 24.0731H6.84161L10.0464 20.8704C9.46737 19.7392 9.16611 18.4864 9.16759 17.2157C9.16998 15.083 10.0182 13.0383 11.5263 11.5302C13.0343 10.0221 15.0789 9.17384 17.2116 9.17143C18.4831 9.16873 19.7369 9.46896 20.8693 10.0473L21.9696 8.94704H25.4824Z" fill="#00AFFF"/>
</g>
<defs>
<clipPath id="clip0_20617_3528">
<rect width="34" height="34" fill="white"/>
</clipPath>
</defs>
</svg>
