<svg width="16" height="16" viewBox="0 0 16 16" fill="none" xmlns="http://www.w3.org/2000/svg">
<path d="M8.53342 13.8V14.2H9.33342C9.60009 14.2 9.86676 14.4 9.86676 14.7333C9.86676 15.0667 9.66676 15.2667 9.33342 15.2667H6.66676C6.40009 15.2667 6.13342 15.0667 6.13342 14.7333C6.13342 14.4 6.33342 14.2 6.66676 14.2H7.46676V13.8667C5.40009 13.8 3.53342 12.8667 2.26676 11.4C2.06676 11.2 2.13342 10.8667 2.33342 10.6667C2.53342 10.4667 2.86676 10.5333 3.06676 10.7333C4.26676 12.0667 5.93342 12.8667 7.80009 12.8667C11.3334 12.8667 14.2001 9.99998 14.2001 6.46665C14.2001 4.59998 13.4001 2.86665 12.0668 1.73332C11.8668 1.53332 11.8668 1.19998 12.0001 0.999985C12.2001 0.799985 12.5334 0.799985 12.7334 0.933318C14.2668 2.26665 15.2001 4.26665 15.2001 6.39999C15.2001 10.2667 12.2668 13.4667 8.53342 13.8ZM2.80009 6.66665C2.80009 3.79998 5.13342 1.46665 8.00009 1.46665C10.8668 1.46665 13.2001 3.79998 13.2001 6.66665C13.2001 9.53332 10.8668 11.8667 8.00009 11.8667C5.13342 11.8667 2.80009 9.53332 2.80009 6.66665ZM11.2001 9.33332C11.0668 9.33332 10.9334 9.33332 10.7334 9.33332C10.7334 9.33332 10.7334 9.33332 10.6668 9.33332C10.6001 9.33332 10.6001 9.33332 10.5334 9.33332C10.4001 9.33332 10.2668 9.39999 10.0668 9.39999C9.66676 9.46665 9.40009 9.66665 9.26676 9.86665C9.13342 10.1333 9.13342 10.4 9.13342 10.6C10.0001 10.4 10.6668 9.93332 11.2001 9.33332ZM5.53342 3.26665C5.93342 3.79999 6.33342 4.59999 6.40009 5.39999C6.46676 6.26665 7.00009 6.79998 7.60009 6.79998C7.66675 6.79998 7.73342 6.79999 7.80009 6.73332C7.86676 6.66665 7.86676 6.66665 7.86676 6.66665C7.86676 6.59999 7.86676 6.53332 7.86676 6.46665C7.80009 6.19998 7.80009 5.93332 7.93342 5.59998C8.13342 5.13332 8.46676 4.86665 8.73342 4.66665C8.86676 4.59998 9.00009 4.53332 9.06676 4.46665C9.06676 4.46665 9.06676 4.46665 9.13342 4.46665C9.26676 4.39998 9.40009 4.33332 9.46675 4.26665C9.66676 4.13332 9.80009 3.99998 9.80009 3.93332C9.93342 3.73332 10.0668 3.46665 10.0668 3.13332C9.46676 2.73332 8.73342 2.53332 7.93342 2.53332C7.06675 2.53332 6.26676 2.79999 5.53342 3.26665ZM3.86676 6.66665C3.86676 8.99998 5.73342 10.8 8.00009 10.8C8.06676 10.8 8.13342 10.8 8.20009 10.8C8.13342 10.4 8.20009 9.86665 8.40009 9.39999C8.73342 8.79999 9.40009 8.53332 9.86676 8.39999C10.1334 8.33332 10.3334 8.33332 10.4668 8.26665C10.5334 8.26665 10.6001 8.26665 10.6668 8.26665H10.7334C11.2001 8.26665 11.5334 8.13332 11.6668 7.99998C11.8001 7.86665 11.9334 7.73332 12.0001 7.53332C12.0001 7.53332 12.0001 7.53332 12.0001 7.46665C12.0668 7.13332 12.1334 6.86665 12.1334 6.53332C12.1334 5.39998 11.6668 4.39998 11.0001 3.66665C10.9334 3.93332 10.8001 4.13332 10.7334 4.26665C10.6001 4.46665 10.3334 4.73332 10.1334 4.86665C10.0001 4.99999 9.86676 5.06665 9.73342 5.13332C9.73342 5.13332 9.73342 5.13332 9.66676 5.13332C9.53342 5.33332 9.40009 5.39998 9.33342 5.46665C9.13342 5.59998 9.00009 5.73332 8.86676 5.99998C8.86676 6.06665 8.86676 6.13332 8.86676 6.19999C8.93342 6.33332 8.93342 6.53332 8.93342 6.66665C8.93342 7.39998 8.26676 7.86665 7.66676 7.86665C6.33342 7.86665 5.53342 6.73332 5.46676 5.59998C5.40009 4.99998 5.13342 4.39998 4.80009 3.99998C4.20009 4.73332 3.86676 5.66665 3.86676 6.66665Z" fill="white"/>
</svg>
