<svg width="16" height="16" viewBox="0 0 16 16" fill="none" xmlns="http://www.w3.org/2000/svg">
<path d="M10.6667 9.13335L11 8.80002L11.3334 9.13335C11.1334 9.33335 10.8667 9.33335 10.6667 9.13335ZM14.6667 8.53335C15 8.93335 15.1334 9.46668 15.1334 10.0667C15.1334 11.0667 14.6667 11.8667 14.1334 12.4667C13.6 13.0667 12.8667 13.5333 12.4 13.8667C12.2 14 12 14.1333 11.8 14.2667C11.6 14.4 11.3334 14.4667 11 14.4667C10.6667 14.4667 10.4 14.3333 10.2 14.2667C10 14.1333 9.80003 14 9.60003 13.8667C9.13336 14.2 8.60003 14.5333 8.00003 14.5333C7.53337 14.5333 7.13337 14.3333 6.73337 14.1333C6.33337 13.9333 6.00003 13.6 5.6667 13.3333C3.80003 11.8 0.866699 9.80002 0.866699 6.13335C0.866699 4.26668 1.8667 2.60002 3.33337 1.93335C4.73337 1.26668 6.4667 1.46668 8.00003 2.93335C9.53337 1.46668 11.2667 1.26668 12.6667 1.93335C14.1334 2.66668 15.1334 4.26668 15.1334 6.13335C15.2 7.00002 15 7.80002 14.6667 8.53335ZM8.00003 13.4667C8.20003 13.4667 8.4667 13.3333 8.73337 13.2C7.80003 12.5333 6.80003 11.5333 6.80003 10C6.80003 8.93335 7.40003 8.06668 8.33337 7.66668C9.13337 7.33335 10.1334 7.40002 11 8.06668C11.5334 7.66668 12.1334 7.46668 12.6667 7.46668C13.0667 7.46668 13.4667 7.60002 13.8667 7.80002C14.0667 7.26668 14.1334 6.66668 14.1334 6.06668C14.1334 4.53335 13.3334 3.26668 12.2 2.73335C11.1334 2.20002 9.6667 2.33335 8.33337 3.86668L8.00003 3.53335L7.60003 3.86668C6.2667 2.40002 4.80003 2.26668 3.73337 2.80002C2.6667 3.26668 1.8667 4.53335 1.8667 6.06668C1.8667 9.20002 4.2667 10.8 6.33337 12.4667C6.6667 12.7333 7.00003 13 7.2667 13.2C7.53337 13.4 7.80003 13.4667 8.00003 13.4667ZM14.1334 10.0667C14.1334 9.66668 14 9.26668 13.7334 9.00002C13.4667 8.73335 13.0667 8.53335 12.6667 8.53335C12.2667 8.53335 11.8 8.66668 11.3334 9.13335L11 8.80002L10.6667 9.13335C10 8.46668 9.2667 8.40002 8.73337 8.60002C8.20003 8.80002 7.80003 9.40002 7.80003 10C7.80003 11.2667 8.80003 12 9.8667 12.8C9.93337 12.8667 10.0667 12.9333 10.1334 13C10.3334 13.1333 10.4667 13.2667 10.6667 13.3333C10.8 13.4 10.9334 13.4667 11 13.4667C11.0667 13.4667 11.1334 13.4667 11.3334 13.3333C11.4667 13.2667 11.6667 13.1333 11.8667 13C12.4667 12.6 13 12.2 13.4667 11.6667C13.8667 11.2667 14.1334 10.7333 14.1334 10.0667ZM8.40003 3.86668L8.00003 3.53335L7.60003 3.86668C7.73337 4.00002 7.8667 4.06668 8.00003 4.06668C8.13337 4.06668 8.2667 4.00002 8.40003 3.86668Z" fill="white"/>
</svg>
