<svg width="20" height="20" viewBox="0 0 20 20" fill="none" xmlns="http://www.w3.org/2000/svg">
<g id="Info  Circle 1">
<path id="Vector" d="M10 1C5.08333 1 1 5.08333 1 10C1 14.9167 5 19 10 19C15 19 19 15 19 10C19 5 14.9167 1 10 1ZM10 17.6667C5.75 17.6667 2.33333 14.25 2.33333 10C2.33333 5.75 5.75 2.33333 10 2.33333C14.25 2.33333 17.6667 5.75 17.6667 10C17.6667 14.25 14.25 17.6667 10 17.6667ZM10.6667 9.16667V14.1667C10.6667 14.5 10.4167 14.8333 10 14.8333C9.58333 14.8333 9.33333 14.5833 9.33333 14.1667V9.16667C9.33333 8.83333 9.58333 8.5 10 8.5C10.4167 8.5 10.6667 8.75 10.6667 9.16667ZM10.8333 6.66667C10.8333 7.16667 10.5 7.5 10 7.5C9.5 7.5 9.16667 7.16667 9.16667 6.66667C9.16667 6.16667 9.5 5.83333 10 5.83333C10.5 5.83333 10.8333 6.16667 10.8333 6.66667Z" fill="#00AFFF"/>
</g>
</svg>
