<svg width="34" height="34" viewBox="0 0 34 34" fill="none" xmlns="http://www.w3.org/2000/svg">
<rect width="34" height="34" rx="17" transform="matrix(-1 0 0 1 34 0)" fill="#011A24"/>
<path d="M13.8923 18.9316L17 15.8152L20.1077 18.9316L17 22.048L13.8923 18.9316Z" fill="#FF220B"/>
<path d="M5.2436 19.3073H28.7568L17.0002 7.51758L5.2436 19.3073ZM26.9626 18.5619H7.03796L17.0002 8.57162L26.9626 18.5619Z" fill="#AC7232"/>
<path d="M13.885 11.6848L24.5005 22.3301L23.9749 22.8571L13.3595 12.2118L13.885 11.6848Z" fill="#AC7232"/>
<path d="M10.2618 15.302L20.8853 25.9553L20.3597 26.4824L9.73622 15.829L10.2618 15.302Z" fill="#AC7232"/>
<path d="M20.1065 11.6795L20.6318 12.2068L10.0278 22.8316L9.5025 22.3043L20.1065 11.6795Z" fill="#AC7232"/>
<path d="M13.6387 26.4537L24.2583 15.8283L23.7327 15.3013L13.1132 25.9266L13.6387 26.4537Z" fill="#AC7232"/>
</svg>
