<svg width="20" height="21" viewBox="0 0 20 21" fill="none" xmlns="http://www.w3.org/2000/svg">
<path d="M7.66658 2.16667C7.66658 1.83333 7.91659 1.5 8.33325 1.5H11.6666C11.9999 1.5 12.3333 1.75 12.3333 2.16667C12.3333 2.58333 11.9999 2.83333 11.6666 2.83333H8.33325C7.99992 2.83333 7.66658 2.5 7.66658 2.16667ZM18.1666 11.3333C18.1666 15.8333 14.4999 19.5 9.99992 19.5C5.49992 19.5 1.83325 15.8333 1.83325 11.3333C1.83325 6.83333 5.49992 3.16667 9.99992 3.16667C14.4999 3.16667 18.1666 6.83333 18.1666 11.3333ZM16.8333 11.3333C16.8333 7.5 13.7499 4.5 9.99992 4.5C6.16659 4.5 3.16659 7.58333 3.16659 11.3333C3.16659 15.1667 6.24992 18.1667 9.99992 18.1667C13.8333 18.1667 16.8333 15.1667 16.8333 11.3333ZM9.99992 7.33333C9.66659 7.33333 9.33325 7.58333 9.33325 8V11.3333C9.33325 11.6667 9.58325 12 9.99992 12C10.4166 12 10.6666 11.75 10.6666 11.3333V8C10.6666 7.66667 10.3333 7.33333 9.99992 7.33333Z" fill="#00AFFF"/>
</svg>
