<svg width="16" height="16" viewBox="0 0 16 16" fill="none" xmlns="http://www.w3.org/2000/svg">
<path fill-rule="evenodd" clip-rule="evenodd" d="M13.1333 10.7333V5.33331V5.26665C13.9999 5.06665 14.6666 4.26665 14.6666 3.33331C14.6666 2.19998 13.7999 1.33331 12.6666 1.33331C11.7333 1.33331 10.9333 1.99998 10.7333 2.86665H10.6666H5.33325H5.26659C5.06659 1.99998 4.26659 1.33331 3.33325 1.33331C2.19992 1.33331 1.33325 2.19998 1.33325 3.33331C1.33325 4.26665 1.99992 5.06665 2.86659 5.26665V5.33331V10.6666V10.7333C1.99992 10.9333 1.33325 11.7333 1.33325 12.6666C1.33325 13.8 2.19992 14.6666 3.33325 14.6666C4.26659 14.6666 5.06659 14 5.26659 13.1333H5.33325H10.6666H10.7333C10.9333 14 11.7333 14.6666 12.6666 14.6666C13.7999 14.6666 14.6666 13.8 14.6666 12.6666C14.6666 11.7333 13.9999 10.9333 13.1333 10.7333ZM12.1999 10.7333C11.4666 10.9333 10.9333 11.4666 10.7333 12.2H10.6666H5.33325H5.26659C5.06659 11.4666 4.53325 10.9333 3.79992 10.7333V10.6666V5.33331V5.26665C4.53325 5.06665 5.06659 4.53331 5.26659 3.79998H5.33325H10.6666H10.7333C10.9333 4.53331 11.4666 5.06665 12.1999 5.26665V5.33331V10.7333Z" fill="white"/>
</svg>
